<?xml version="1.0" encoding="UTF-8" standalone="no"?>
<svg
   xmlns:dc="http://purl.org/dc/elements/1.1/"
   xmlns:cc="http://creativecommons.org/ns#"
   xmlns:rdf="http://www.w3.org/1999/02/22-rdf-syntax-ns#"
   xmlns:svg="http://www.w3.org/2000/svg"
   xmlns="http://www.w3.org/2000/svg"
   xmlns:sodipodi="http://sodipodi.sourceforge.net/DTD/sodipodi-0.dtd"
   xmlns:inkscape="http://www.inkscape.org/namespaces/inkscape"
   style="font-size:12px;font-style:normal;font-weight:normal;fill:#000000;fill-opacity:1;stroke:#000000;stroke-width:1;stroke-linecap:square;stroke-linejoin:miter;stroke-miterlimit:10;stroke-dasharray:none;stroke-dashoffset:0;stroke-opacity:1;font-family:Dialog"
   id="svg2"
   sodipodi:version="0.32"
   inkscape:version="0.46"
   width="650"
   height="320"
   sodipodi:docname="ser-i2c-i2c.svg"
   inkscape:output_extension="org.inkscape.output.svg.inkscape"
   version="1.0">
  <metadata
     id="metadata208">
    <rdf:RDF>
      <cc:Work
         rdf:about="">
        <dc:format>image/svg+xml</dc:format>
        <dc:type
           rdf:resource="http://purl.org/dc/dcmitype/StillImage" />
      </cc:Work>
    </rdf:RDF>
  </metadata>
  <sodipodi:namedview
     inkscape:window-height="753"
     inkscape:window-width="1280"
     inkscape:pageshadow="2"
     inkscape:pageopacity="0.0"
     guidetolerance="10.0"
     gridtolerance="10.0"
     objecttolerance="10.0"
     borderopacity="1.0"
     bordercolor="#666666"
     pagecolor="#ffffff"
     id="base"
     showgrid="false"
     inkscape:zoom="1.628125"
     inkscape:cx="325"
     inkscape:cy="160"
     inkscape:window-x="0"
     inkscape:window-y="24"
     inkscape:current-layer="svg2" />
<!--Generated by the Batik Graphics2D SVG Generator-->  <defs
     id="genericDefs">
    <inkscape:perspective
       sodipodi:type="inkscape:persp3d"
       inkscape:vp_x="0 : 526.18109 : 1"
       inkscape:vp_y="0 : 1000 : 0"
       inkscape:vp_z="744.09448 : 526.18109 : 1"
       inkscape:persp3d-origin="372.04724 : 350.78739 : 1"
       id="perspective210" />
  </defs>
  <g
     id="g5"
     transform="translate(-9.5,-9.5)">
    <g
       transform="translate(320,290)"
       style="font-size:14px;fill:#ffffff;stroke:#ffffff;font-family:sans-serif"
       id="g7">
      <rect
         x="0"
         y="0"
         width="129"
         style="opacity:0;stroke:none"
         height="39"
         id="rect9" />
      <rect
         x="0"
         y="0"
         width="129"
         style="fill:none;stroke:#000000"
         height="39"
         id="rect11" />
      <text
         x="40"
         xml:space="preserve"
         y="17"
         style="fill:#000000;stroke:none"
         id="text13">«Slave»</text>
      <text
         x="49"
         xml:space="preserve"
         y="34"
         style="fill:#000000;stroke:none"
         id="text15">I2C-It</text>
      <rect
         x="0"
         y="0"
         transform="translate(0,-60)"
         width="129"
         style="opacity:0;stroke:none"
         height="39"
         id="rect17" />
      <rect
         x="0"
         y="0"
         transform="translate(0,-60)"
         width="129"
         style="fill:none;stroke:#000000"
         height="39"
         id="rect19" />
      <text
         x="40"
         y="17"
         transform="translate(0,-60)"
         style="fill:#000000;stroke:none"
         xml:space="preserve"
         id="text21">«Slave»</text>
      <text
         x="49"
         y="34"
         transform="translate(0,-60)"
         style="fill:#000000;stroke:none"
         xml:space="preserve"
         id="text23">I2C-It</text>
      <line
         transform="translate(0,-244)"
         x1="20"
         x2="115"
         y1="34"
         style="fill:none;stroke:#000000"
         y2="34"
         id="line25" />
      <line
         transform="translate(0,-244)"
         x1="115"
         x2="210"
         y1="34"
         style="fill:none;stroke:#000000"
         y2="34"
         id="line27" />
      <line
         transform="translate(0,-244)"
         x1="209"
         x2="197"
         y1="34"
         style="fill:none;stroke:#000000"
         y2="40"
         id="line29" />
      <line
         transform="translate(0,-244)"
         x1="209"
         x2="197"
         y1="34"
         style="fill:none;stroke:#000000"
         y2="28"
         id="line31" />
      <text
         x="79"
         y="31"
         transform="translate(0,-244)"
         style="fill:#000000;stroke:none"
         xml:space="preserve"
         id="text33">8 GPIO line</text>
      <line
         transform="translate(0,-294)"
         x1="20"
         x2="70"
         y1="84"
         style="fill:none;stroke:#000000"
         y2="34"
         id="line35" />
      <line
         transform="translate(0,-294)"
         x1="70"
         x2="140"
         y1="34"
         style="fill:none;stroke:#000000"
         y2="34"
         id="line37" />
      <line
         transform="translate(0,-294)"
         x1="140"
         x2="210"
         y1="34"
         style="fill:none;stroke:#000000"
         y2="34"
         id="line39" />
      <line
         transform="translate(0,-294)"
         x1="209"
         x2="197"
         y1="34"
         style="fill:none;stroke:#000000"
         y2="40"
         id="line41" />
      <line
         transform="translate(0,-294)"
         x1="209"
         x2="197"
         y1="34"
         style="fill:none;stroke:#000000"
         y2="28"
         id="line43" />
      <text
         x="34"
         y="31"
         transform="translate(0,-294)"
         style="fill:#000000;stroke:none"
         xml:space="preserve"
         id="text45">2 GPIO line</text>
      <rect
         x="0"
         y="0"
         transform="translate(210,-230)"
         width="129"
         style="opacity:0;stroke:none"
         height="39"
         id="rect47" />
      <rect
         x="0"
         y="0"
         transform="translate(210,-230)"
         width="129"
         style="fill:none;stroke:#000000"
         height="39"
         id="rect49" />
      <text
         x="36"
         y="17"
         transform="translate(210,-230)"
         style="fill:#000000;stroke:none"
         xml:space="preserve"
         id="text51">«Power»</text>
      <text
         x="44"
         y="34"
         transform="translate(210,-230)"
         style="fill:#000000;stroke:none"
         xml:space="preserve"
         id="text53">Canon</text>
      <rect
         x="0"
         y="0"
         transform="translate(210,-280)"
         width="129"
         style="opacity:0;stroke:none"
         height="39"
         id="rect55" />
      <rect
         x="0"
         y="0"
         transform="translate(210,-280)"
         width="129"
         style="fill:none;stroke:#000000"
         height="39"
         id="rect57" />
      <text
         x="36"
         y="17"
         transform="translate(210,-280)"
         style="fill:#000000;stroke:none"
         xml:space="preserve"
         id="text59">«Power»</text>
      <text
         x="46"
         y="34"
         transform="translate(210,-280)"
         style="fill:#000000;stroke:none"
         xml:space="preserve"
         id="text61">Motor</text>
      <line
         transform="translate(84,-184)"
         x1="26"
         x2="56"
         y1="64"
         style="fill:none;stroke:#000000"
         y2="34"
         id="line63" />
      <line
         transform="translate(84,-184)"
         x1="56"
         x2="91"
         y1="34"
         style="fill:none;stroke:#000000"
         y2="34"
         id="line65" />
      <line
         transform="translate(84,-184)"
         x1="91"
         x2="126"
         y1="34"
         style="fill:none;stroke:#000000"
         y2="34"
         id="line67" />
      <line
         transform="translate(84,-184)"
         x1="125"
         x2="113"
         y1="34"
         style="fill:none;stroke:#000000"
         y2="40"
         id="line69" />
      <line
         transform="translate(84,-184)"
         x1="125"
         x2="113"
         y1="34"
         style="fill:none;stroke:#000000"
         y2="28"
         id="line71" />
      <text
         x="20"
         y="31"
         transform="translate(84,-184)"
         style="fill:#000000;stroke:none"
         xml:space="preserve"
         id="text73">2 GPIO line</text>
      <rect
         x="0"
         y="0"
         transform="translate(210,-170)"
         width="129"
         style="opacity:0;stroke:none"
         height="39"
         id="rect75" />
      <rect
         x="0"
         y="0"
         transform="translate(210,-170)"
         width="129"
         style="fill:none;stroke:#000000"
         height="39"
         id="rect77" />
      <text
         x="36"
         y="17"
         transform="translate(210,-170)"
         style="fill:#000000;stroke:none"
         xml:space="preserve"
         id="text79">«Power»</text>
      <text
         x="46"
         y="34"
         transform="translate(210,-170)"
         style="fill:#000000;stroke:none"
         xml:space="preserve"
         id="text81">Motor</text>
      <line
         transform="translate(84,-140)"
         x1="26"
         x2="56"
         y1="20"
         style="fill:none;stroke:#000000"
         y2="50"
         id="line83" />
      <line
         transform="translate(84,-140)"
         x1="56"
         x2="91"
         y1="50"
         style="fill:none;stroke:#000000"
         y2="50"
         id="line85" />
      <line
         transform="translate(84,-140)"
         x1="91"
         x2="126"
         y1="50"
         style="fill:none;stroke:#000000"
         y2="50"
         id="line87" />
      <line
         transform="translate(84,-140)"
         x1="125"
         x2="113"
         y1="50"
         style="fill:none;stroke:#000000"
         y2="56"
         id="line89" />
      <line
         transform="translate(84,-140)"
         x1="125"
         x2="113"
         y1="50"
         style="fill:none;stroke:#000000"
         y2="44"
         id="line91" />
      <text
         x="20"
         y="47"
         transform="translate(84,-140)"
         style="fill:#000000;stroke:none"
         xml:space="preserve"
         id="text93">1 GPIO line</text>
      <rect
         x="0"
         y="0"
         transform="translate(210,-110)"
         width="129"
         style="opacity:0;stroke:none"
         height="39"
         id="rect95" />
      <rect
         x="0"
         y="0"
         transform="translate(210,-110)"
         width="129"
         style="fill:none;stroke:#000000"
         height="39"
         id="rect97" />
      <text
         x="34"
         y="17"
         transform="translate(210,-110)"
         style="fill:#000000;stroke:none"
         xml:space="preserve"
         id="text99">«Analog»</text>
      <text
         x="46"
         y="34"
         transform="translate(210,-110)"
         style="fill:#000000;stroke:none"
         xml:space="preserve"
         id="text101">Sharp</text>
      <line
         transform="translate(-60,-130)"
         x1="20"
         x2="40"
         y1="20"
         style="fill:none;stroke:#000000"
         y2="20"
         id="line103" />
      <line
         transform="translate(-60,-130)"
         x1="40"
         x2="60"
         y1="20"
         style="fill:none;stroke:#000000"
         y2="20"
         id="line105" />
      <line
         transform="translate(-60,-130)"
         x1="59"
         x2="47"
         y1="20"
         style="fill:none;stroke:#000000"
         y2="26"
         id="line107" />
      <line
         transform="translate(-60,-130)"
         x1="59"
         x2="47"
         y1="20"
         style="fill:none;stroke:#000000"
         y2="14"
         id="line109" />
      <line
         transform="translate(-60,-60)"
         x1="20"
         x2="40"
         y1="20"
         style="fill:none;stroke:#000000"
         y2="20"
         id="line111" />
      <line
         transform="translate(-60,-60)"
         x1="40"
         x2="60"
         y1="20"
         style="fill:none;stroke:#000000"
         y2="20"
         id="line113" />
      <line
         transform="translate(-60,-60)"
         x1="59"
         x2="47"
         y1="20"
         style="fill:none;stroke:#000000"
         y2="26"
         id="line115" />
      <line
         transform="translate(-60,-60)"
         x1="59"
         x2="47"
         y1="20"
         style="fill:none;stroke:#000000"
         y2="14"
         id="line117" />
      <line
         transform="translate(-69,-200)"
         x1="69"
         x2="29"
         y1="220"
         style="fill:none;stroke:#000000"
         y2="220"
         id="line119" />
      <line
         transform="translate(-69,-200)"
         x1="29"
         x2="29"
         y1="220"
         style="fill:none;stroke:#000000"
         y2="120"
         id="line121" />
      <line
         transform="translate(-69,-200)"
         x1="29"
         x2="29"
         y1="120"
         style="fill:none;stroke:#000000"
         y2="20"
         id="line123" />
      <line
         transform="translate(-69,-200)"
         x1="68"
         x2="56"
         y1="220"
         style="fill:none;stroke:#000000"
         y2="226"
         id="line125" />
      <line
         transform="translate(-69,-200)"
         x1="68"
         x2="56"
         y1="220"
         style="fill:none;stroke:#000000"
         y2="214"
         id="line127" />
      <text
         x="20"
         y="217"
         transform="translate(-69,-200)"
         style="fill:#000000;stroke:none"
         xml:space="preserve"
         id="text129">I2C</text>
      <line
         transform="translate(-220,-244)"
         x1="20"
         x2="75"
         y1="34"
         style="fill:none;stroke:#000000"
         y2="34"
         id="line131" />
      <line
         transform="translate(-220,-244)"
         x1="75"
         x2="130"
         y1="34"
         style="fill:none;stroke:#000000"
         y2="34"
         id="line133" />
      <line
         transform="translate(-220,-244)"
         x1="129"
         x2="117"
         y1="34"
         style="fill:none;stroke:#000000"
         y2="40"
         id="line135" />
      <line
         transform="translate(-220,-244)"
         x1="129"
         x2="117"
         y1="34"
         style="fill:none;stroke:#000000"
         y2="28"
         id="line137" />
      <text
         x="57"
         y="31"
         transform="translate(-220,-244)"
         style="fill:#000000;stroke:none"
         xml:space="preserve"
         id="text139">UART</text>
      <rect
         x="0"
         y="10"
         transform="translate(0,-140)"
         width="99"
         style="opacity:0;stroke:none"
         height="39"
         id="rect141" />
      <polygon
         style="opacity:0.5;fill:#e6e6e6;stroke:none"
         transform="translate(0,-140)"
         points="99,49 99,10 109,0 109,39 99,49 "
         id="polygon143" />
      <polygon
         style="opacity:0.5;fill:#e6e6e6;stroke:none"
         transform="translate(0,-140)"
         points="0,10 10,0 109,0 99,10 0,10 "
         id="polygon145" />
      <rect
         x="0"
         y="10"
         transform="translate(0,-140)"
         width="99"
         style="fill:none;stroke:#000000"
         height="39"
         id="rect147" />
      <line
         transform="translate(0,-140)"
         x1="0"
         x2="10"
         y1="10"
         style="fill:none;stroke:#000000"
         y2="0"
         id="line149" />
      <line
         transform="translate(0,-140)"
         x1="10"
         x2="109"
         y1="0"
         style="fill:none;stroke:#000000"
         y2="0"
         id="line151" />
      <line
         transform="translate(0,-140)"
         x1="109"
         x2="109"
         y1="0"
         style="fill:none;stroke:#000000"
         y2="39"
         id="line153" />
      <line
         transform="translate(0,-140)"
         x1="109"
         x2="99"
         y1="39"
         style="fill:none;stroke:#000000"
         y2="49"
         id="line155" />
      <line
         transform="translate(0,-140)"
         x1="99"
         x2="109"
         y1="10"
         style="fill:none;stroke:#000000"
         y2="0"
         id="line157" />
      <text
         x="24"
         y="27"
         transform="translate(0,-140)"
         style="fill:#000000;stroke:none"
         xml:space="preserve"
         id="text159">«Slave»</text>
      <text
         x="-2"
         y="44"
         transform="translate(0,-140)"
         style="fill:#000000;stroke:none"
         xml:space="preserve"
         id="text161">OR-AVR-M32-D</text>
      <rect
         x="0"
         y="10"
         transform="translate(-90,-230)"
         width="99"
         style="opacity:0;stroke:none"
         height="39"
         id="rect163" />
      <polygon
         style="opacity:0.5;fill:#e6e6e6;stroke:none"
         transform="translate(-90,-230)"
         points="99,49 99,10 109,0 109,39 99,49 "
         id="polygon165" />
      <polygon
         style="opacity:0.5;fill:#e6e6e6;stroke:none"
         transform="translate(-90,-230)"
         points="0,10 10,0 109,0 99,10 0,10 "
         id="polygon167" />
      <rect
         x="0"
         y="10"
         transform="translate(-90,-230)"
         width="99"
         style="fill:none;stroke:#000000"
         height="39"
         id="rect169" />
      <line
         transform="translate(-90,-230)"
         x1="0"
         x2="10"
         y1="10"
         style="fill:none;stroke:#000000"
         y2="0"
         id="line171" />
      <line
         transform="translate(-90,-230)"
         x1="10"
         x2="109"
         y1="0"
         style="fill:none;stroke:#000000"
         y2="0"
         id="line173" />
      <line
         transform="translate(-90,-230)"
         x1="109"
         x2="109"
         y1="0"
         style="fill:none;stroke:#000000"
         y2="39"
         id="line175" />
      <line
         transform="translate(-90,-230)"
         x1="109"
         x2="99"
         y1="39"
         style="fill:none;stroke:#000000"
         y2="49"
         id="line177" />
      <line
         transform="translate(-90,-230)"
         x1="99"
         x2="109"
         y1="10"
         style="fill:none;stroke:#000000"
         y2="0"
         id="line179" />
      <text
         x="18"
         y="27"
         transform="translate(-90,-230)"
         style="fill:#000000;stroke:none"
         xml:space="preserve"
         id="text181">«Master»</text>
      <text
         x="-2"
         y="44"
         transform="translate(-90,-230)"
         style="fill:#000000;stroke:none"
         xml:space="preserve"
         id="text183">OR-AVR-M32-D</text>
      <rect
         x="0"
         y="10"
         transform="translate(-310,-230)"
         width="99"
         style="opacity:0;stroke:none"
         height="39"
         id="rect185" />
      <polygon
         style="opacity:0.5;fill:#e6e6e6;stroke:none"
         transform="translate(-310,-230)"
         points="99,49 99,10 109,0 109,39 99,49 "
         id="polygon187" />
      <polygon
         style="opacity:0.5;fill:#e6e6e6;stroke:none"
         transform="translate(-310,-230)"
         points="0,10 10,0 109,0 99,10 0,10 "
         id="polygon189" />
      <rect
         x="0"
         y="10"
         transform="translate(-310,-230)"
         width="99"
         style="fill:none;stroke:#000000"
         height="39"
         id="rect191" />
      <line
         transform="translate(-310,-230)"
         x1="0"
         x2="10"
         y1="10"
         style="fill:none;stroke:#000000"
         y2="0"
         id="line193" />
      <line
         transform="translate(-310,-230)"
         x1="10"
         x2="109"
         y1="0"
         style="fill:none;stroke:#000000"
         y2="0"
         id="line195" />
      <line
         transform="translate(-310,-230)"
         x1="109"
         x2="109"
         y1="0"
         style="fill:none;stroke:#000000"
         y2="39"
         id="line197" />
      <line
         transform="translate(-310,-230)"
         x1="109"
         x2="99"
         y1="39"
         style="fill:none;stroke:#000000"
         y2="49"
         id="line199" />
      <line
         transform="translate(-310,-230)"
         x1="99"
         x2="109"
         y1="10"
         style="fill:none;stroke:#000000"
         y2="0"
         id="line201" />
      <text
         x="23"
         y="27"
         transform="translate(-310,-230)"
         style="fill:#000000;stroke:none"
         xml:space="preserve"
         id="text203">«UART»</text>
      <text
         x="9"
         y="44"
         transform="translate(-310,-230)"
         style="fill:#000000;stroke:none"
         xml:space="preserve"
         id="text205">OR-BTM111</text>
    </g>
  </g>
</svg>
