<?xml version="1.0" encoding="UTF-8" standalone="no"?>
<svg
   xmlns:dc="http://purl.org/dc/elements/1.1/"
   xmlns:cc="http://creativecommons.org/ns#"
   xmlns:rdf="http://www.w3.org/1999/02/22-rdf-syntax-ns#"
   xmlns:svg="http://www.w3.org/2000/svg"
   xmlns="http://www.w3.org/2000/svg"
   xmlns:sodipodi="http://sodipodi.sourceforge.net/DTD/sodipodi-0.dtd"
   xmlns:inkscape="http://www.inkscape.org/namespaces/inkscape"
   style="font-size:12px;font-style:normal;font-weight:normal;fill:#000000;fill-opacity:1;stroke:#000000;stroke-width:1;stroke-linecap:square;stroke-linejoin:miter;stroke-miterlimit:10;stroke-dasharray:none;stroke-dashoffset:0;stroke-opacity:1;font-family:Dialog"
   id="svg2"
   sodipodi:version="0.32"
   inkscape:version="0.46"
   width="704.88281"
   height="381.70605"
   sodipodi:docname="structure.svg"
   inkscape:output_extension="org.inkscape.output.svg.inkscape"
   version="1.0">
  <metadata
     id="metadata328">
    <rdf:RDF>
      <cc:Work
         rdf:about="">
        <dc:format>image/svg+xml</dc:format>
        <dc:type
           rdf:resource="http://purl.org/dc/dcmitype/StillImage" />
      </cc:Work>
    </rdf:RDF>
  </metadata>
  <sodipodi:namedview
     inkscape:window-height="753"
     inkscape:window-width="1280"
     inkscape:pageshadow="2"
     inkscape:pageopacity="0.0"
     guidetolerance="10.0"
     gridtolerance="10.0"
     objecttolerance="10.0"
     borderopacity="1.0"
     bordercolor="#666666"
     pagecolor="#ffffff"
     id="base"
     showgrid="false"
     inkscape:zoom="1.3649246"
     inkscape:cx="352.44141"
     inkscape:cy="190.85303"
     inkscape:window-x="0"
     inkscape:window-y="24"
     inkscape:current-layer="svg2" />
<!--Generated by the Batik Graphics2D SVG Generator-->  <defs
     id="genericDefs">
    <inkscape:perspective
       sodipodi:type="inkscape:persp3d"
       inkscape:vp_x="0 : 526.18109 : 1"
       inkscape:vp_y="0 : 1000 : 0"
       inkscape:vp_z="744.09448 : 526.18109 : 1"
       inkscape:persp3d-origin="372.04724 : 350.78739 : 1"
       id="perspective330" />
  </defs>
  <g
     id="g5"
     transform="translate(-18.374023,-16.793945)">
    <g
       transform="translate(430,50)"
       style="font-size:14px;font-family:sans-serif"
       id="g7">
      <line
         y2="20"
         style="fill:none"
         x1="120"
         x2="70"
         y1="20"
         id="line9" />
      <line
         y2="45"
         style="fill:none"
         x1="70"
         x2="45"
         y1="20"
         id="line11" />
      <line
         y2="70"
         style="fill:none"
         x1="45"
         x2="20"
         y1="45"
         id="line13" />
      <line
         y2="26"
         style="fill:none"
         x1="119"
         x2="107"
         y1="20"
         id="line15" />
      <line
         y2="14"
         style="fill:none"
         x1="119"
         x2="107"
         y1="20"
         id="line17" />
      <ellipse
         transform="translate(120,0)"
         style="opacity:0;fill:#ffffff;stroke:none"
         rx="59"
         cx="59"
         ry="19"
         cy="19"
         id="ellipse19"
         sodipodi:cx="59"
         sodipodi:cy="19"
         sodipodi:rx="59"
         sodipodi:ry="19" />
      <ellipse
         transform="translate(120,0)"
         style="fill:none"
         rx="59"
         cx="59"
         ry="19"
         cy="19"
         id="ellipse21"
         sodipodi:cx="59"
         sodipodi:cy="19"
         sodipodi:rx="59"
         sodipodi:ry="19" />
      <text
         x="32"
         xml:space="preserve"
         y="26"
         style="stroke:none"
         transform="translate(120,0)"
         id="text23">RoboI2C</text>
      <line
         transform="translate(10,280)"
         x1="170"
         x2="140"
         y1="20"
         style="fill:none"
         y2="50"
         id="line25" />
      <line
         transform="translate(10,280)"
         x1="140"
         x2="80"
         y1="50"
         style="fill:none"
         y2="50"
         id="line27" />
      <line
         transform="translate(10,280)"
         x1="80"
         x2="20"
         y1="50"
         style="fill:none"
         y2="50"
         id="line29" />
      <line
         transform="translate(10,280)"
         x1="169"
         x2="165"
         y1="20"
         style="fill:none"
         y2="33"
         id="line31" />
      <line
         transform="translate(10,280)"
         x1="169"
         x2="156"
         y1="20"
         style="fill:none"
         y2="24"
         id="line33" />
      <text
         x="103"
         xml:space="preserve"
         y="47"
         style="stroke:none"
         transform="translate(10,280)"
         id="text35">Servo PWM</text>
      <line
         transform="translate(10,246)"
         x1="110"
         x2="65"
         y1="34"
         style="fill:none"
         y2="34"
         id="line37" />
      <line
         transform="translate(10,246)"
         x1="65"
         x2="20"
         y1="34"
         style="fill:none"
         y2="34"
         id="line39" />
      <line
         transform="translate(10,246)"
         x1="20"
         x2="32"
         y1="34"
         style="fill:none"
         y2="28"
         id="line41" />
      <line
         transform="translate(10,246)"
         x1="20"
         x2="32"
         y1="34"
         style="fill:none"
         y2="40"
         id="line43" />
      <text
         x="39"
         xml:space="preserve"
         y="31"
         style="stroke:none"
         transform="translate(10,246)"
         id="text45">Anlog In</text>
      <line
         transform="translate(10,196)"
         x1="170"
         x2="140"
         y1="64"
         style="fill:none"
         y2="34"
         id="line47" />
      <line
         transform="translate(10,196)"
         x1="140"
         x2="80"
         y1="34"
         style="fill:none"
         y2="34"
         id="line49" />
      <line
         transform="translate(10,196)"
         x1="80"
         x2="20"
         y1="34"
         style="fill:none"
         y2="34"
         id="line51" />
      <line
         transform="translate(10,196)"
         x1="169"
         x2="156"
         y1="63"
         style="fill:none"
         y2="59"
         id="line53" />
      <line
         transform="translate(10,196)"
         x1="169"
         x2="165"
         y1="63"
         style="fill:none"
         y2="50"
         id="line55" />
      <line
         transform="translate(10,196)"
         x1="20"
         x2="32"
         y1="34"
         style="fill:none"
         y2="28"
         id="line57" />
      <line
         transform="translate(10,196)"
         x1="20"
         x2="32"
         y1="34"
         style="fill:none"
         y2="40"
         id="line59" />
      <text
         x="112"
         xml:space="preserve"
         y="31"
         style="stroke:none"
         transform="translate(10,196)"
         id="text61">Digital IO</text>
      <ellipse
         transform="translate(120,260)"
         style="opacity:0;fill:#ffffff;stroke:none"
         rx="59"
         cx="59"
         ry="19"
         cy="19"
         id="ellipse63"
         sodipodi:cx="59"
         sodipodi:cy="19"
         sodipodi:rx="59"
         sodipodi:ry="19" />
      <ellipse
         transform="translate(120,260)"
         style="fill:none"
         rx="59"
         cx="59"
         ry="19"
         cy="19"
         id="ellipse65"
         sodipodi:cx="59"
         sodipodi:cy="19"
         sodipodi:rx="59"
         sodipodi:ry="19" />
      <text
         x="26"
         xml:space="preserve"
         y="26"
         style="stroke:none"
         transform="translate(120,260)"
         id="text67">RoboGPIO</text>
      <line
         transform="translate(10,146)"
         x1="110"
         x2="65"
         y1="34"
         style="fill:none"
         y2="34"
         id="line69" />
      <line
         transform="translate(10,146)"
         x1="65"
         x2="20"
         y1="34"
         style="fill:none"
         y2="34"
         id="line71" />
      <line
         transform="translate(10,146)"
         x1="109"
         x2="97"
         y1="34"
         style="fill:none"
         y2="40"
         id="line73" />
      <line
         transform="translate(10,146)"
         x1="109"
         x2="97"
         y1="34"
         style="fill:none"
         y2="28"
         id="line75" />
      <text
         x="28"
         xml:space="preserve"
         y="31"
         style="stroke:none"
         transform="translate(10,146)"
         id="text77">PWM &amp; DIR</text>
      <ellipse
         transform="translate(120,160)"
         style="opacity:0;fill:#ffffff;stroke:none"
         rx="59"
         cx="59"
         ry="19"
         cy="19"
         id="ellipse79"
         sodipodi:cx="59"
         sodipodi:cy="19"
         sodipodi:rx="59"
         sodipodi:ry="19" />
      <ellipse
         transform="translate(120,160)"
         style="fill:none"
         rx="59"
         cx="59"
         ry="19"
         cy="19"
         id="ellipse81"
         sodipodi:cx="59"
         sodipodi:cy="19"
         sodipodi:rx="59"
         sodipodi:ry="19" />
      <text
         x="27"
         xml:space="preserve"
         y="26"
         style="stroke:none"
         transform="translate(120,160)"
         id="text83">RoboMD2</text>
      <line
         transform="translate(10,70)"
         x1="170"
         x2="140"
         y1="20"
         style="fill:none"
         y2="60"
         id="line85" />
      <line
         transform="translate(10,70)"
         x1="140"
         x2="80"
         y1="60"
         style="fill:none"
         y2="60"
         id="line87" />
      <line
         transform="translate(10,70)"
         x1="80"
         x2="20"
         y1="60"
         style="fill:none"
         y2="60"
         id="line89" />
      <line
         transform="translate(10,70)"
         x1="169"
         x2="167"
         y1="20"
         style="fill:none"
         y2="33"
         id="line91" />
      <line
         transform="translate(10,70)"
         x1="169"
         x2="157"
         y1="20"
         style="fill:none"
         y2="26"
         id="line93" />
      <line
         transform="translate(10,70)"
         x1="20"
         x2="32"
         y1="60"
         style="fill:none"
         y2="54"
         id="line95" />
      <line
         transform="translate(10,70)"
         x1="20"
         x2="32"
         y1="60"
         style="fill:none"
         y2="66"
         id="line97" />
      <text
         x="114"
         xml:space="preserve"
         y="57"
         style="stroke:none"
         transform="translate(10,70)"
         id="text99">Real SPI</text>
      <ellipse
         transform="translate(120,50)"
         style="opacity:0;fill:#ffffff;stroke:none"
         rx="59"
         cx="59"
         ry="19"
         cy="19"
         id="ellipse101"
         sodipodi:cx="59"
         sodipodi:cy="19"
         sodipodi:rx="59"
         sodipodi:ry="19" />
      <ellipse
         transform="translate(120,50)"
         style="fill:none"
         rx="59"
         cx="59"
         ry="19"
         cy="19"
         id="ellipse103"
         sodipodi:cx="59"
         sodipodi:cy="19"
         sodipodi:rx="59"
         sodipodi:ry="19" />
      <text
         x="30"
         xml:space="preserve"
         y="26"
         style="stroke:none"
         transform="translate(120,50)"
         id="text105">RoboBus</text>
      <line
         transform="translate(-260,210)"
         x1="170"
         x2="60"
         y1="120"
         style="fill:none;stroke-linecap:butt;stroke-miterlimit:5;stroke-dasharray:8, 5"
         y2="120"
         id="line107" />
      <line
         transform="translate(-260,210)"
         x1="60"
         x2="40"
         y1="120"
         style="fill:none;stroke-linecap:butt;stroke-miterlimit:5;stroke-dasharray:8, 5"
         y2="100"
         id="line109" />
      <line
         transform="translate(-260,210)"
         x1="40"
         x2="20"
         y1="100"
         style="fill:none;stroke-linecap:butt;stroke-miterlimit:5;stroke-dasharray:8, 5"
         y2="80"
         id="line111" />
      <line
         transform="translate(-260,210)"
         x1="20"
         x2="20"
         y1="80"
         style="fill:none;stroke-linecap:butt;stroke-miterlimit:5;stroke-dasharray:8, 5"
         y2="20"
         id="line113" />
      <line
         transform="translate(-260,210)"
         x1="169"
         x2="157"
         y1="120"
         style="fill:none"
         y2="126"
         id="line115" />
      <line
         transform="translate(-260,210)"
         x1="169"
         x2="157"
         y1="120"
         style="fill:none"
         y2="114"
         id="line117" />
      <polygon
         style="fill:#ffffff;stroke:none"
         transform="translate(-260,210)"
         points="169,120 157,126 157,114 169,120 "
         id="polygon119" />
      <polygon
         style="fill:none"
         points="169,120 157,126 157,114 169,120 "
         transform="translate(-260,210)"
         id="polygon121" />
      <line
         transform="translate(-260,210)"
         x1="20"
         x2="26"
         y1="20"
         style="fill:none"
         y2="32"
         id="line123" />
      <line
         transform="translate(-260,210)"
         x1="20"
         x2="14"
         y1="20"
         style="fill:none"
         y2="32"
         id="line125" />
      <polygon
         style="fill:#ffffff;stroke:none"
         transform="translate(-260,210)"
         points="20,20 26,32 14,32 20,20 "
         id="polygon127" />
      <polygon
         style="fill:none"
         points="20,20 26,32 14,32 20,20 "
         transform="translate(-260,210)"
         id="polygon129" />
      <line
         transform="translate(-260,210)"
         x1="170"
         x2="70"
         y1="70"
         style="fill:none;stroke-linecap:butt;stroke-miterlimit:5;stroke-dasharray:8, 5"
         y2="70"
         id="line131" />
      <line
         transform="translate(-260,210)"
         x1="70"
         x2="45"
         y1="70"
         style="fill:none;stroke-linecap:butt;stroke-miterlimit:5;stroke-dasharray:8, 5"
         y2="45"
         id="line133" />
      <line
         transform="translate(-260,210)"
         x1="45"
         x2="20"
         y1="45"
         style="fill:none;stroke-linecap:butt;stroke-miterlimit:5;stroke-dasharray:8, 5"
         y2="20"
         id="line135" />
      <line
         transform="translate(-260,210)"
         x1="169"
         x2="157"
         y1="70"
         style="fill:none"
         y2="76"
         id="line137" />
      <line
         transform="translate(-260,210)"
         x1="169"
         x2="157"
         y1="70"
         style="fill:none"
         y2="64"
         id="line139" />
      <polygon
         style="fill:#ffffff;stroke:none"
         transform="translate(-260,210)"
         points="169,70 157,76 157,64 169,70 "
         id="polygon141" />
      <polygon
         style="fill:none"
         points="169,70 157,76 157,64 169,70 "
         transform="translate(-260,210)"
         id="polygon143" />
      <text
         x="116"
         xml:space="preserve"
         y="84"
         style="stroke:none"
         transform="translate(-260,210)"
         id="text145">config</text>
      <line
         transform="translate(-260,210)"
         x1="20"
         x2="33"
         y1="20"
         style="fill:none"
         y2="24"
         id="line147" />
      <line
         transform="translate(-260,210)"
         x1="20"
         x2="24"
         y1="20"
         style="fill:none"
         y2="33"
         id="line149" />
      <polygon
         style="fill:#ffffff;stroke:none"
         transform="translate(-260,210)"
         points="20,20 33,24 24,33 20,20 "
         id="polygon151" />
      <polygon
         style="fill:none"
         points="20,20 33,24 24,33 20,20 "
         transform="translate(-260,210)"
         id="polygon153" />
      <line
         transform="translate(-260,196)"
         x1="170"
         x2="95"
         y1="34"
         style="fill:none;stroke-linecap:butt;stroke-miterlimit:5;stroke-dasharray:8, 5"
         y2="34"
         id="line155" />
      <line
         transform="translate(-260,196)"
         x1="95"
         x2="20"
         y1="34"
         style="fill:none;stroke-linecap:butt;stroke-miterlimit:5;stroke-dasharray:8, 5"
         y2="34"
         id="line157" />
      <line
         transform="translate(-260,196)"
         x1="169"
         x2="157"
         y1="34"
         style="fill:none"
         y2="40"
         id="line159" />
      <line
         transform="translate(-260,196)"
         x1="169"
         x2="157"
         y1="34"
         style="fill:none"
         y2="28"
         id="line161" />
      <polygon
         style="fill:#ffffff;stroke:none"
         transform="translate(-260,196)"
         points="169,34 157,40 157,28 169,34 "
         id="polygon163" />
      <polygon
         style="fill:none"
         points="169,34 157,40 157,28 169,34 "
         transform="translate(-260,196)"
         id="polygon165" />
      <text
         x="58"
         xml:space="preserve"
         y="31"
         style="stroke:none"
         transform="translate(-260,196)"
         id="text167">40h — 47h</text>
      <line
         transform="translate(-260,146)"
         x1="170"
         x2="70"
         y1="34"
         style="fill:none;stroke-linecap:butt;stroke-miterlimit:5;stroke-dasharray:8, 5"
         y2="34"
         id="line169" />
      <line
         transform="translate(-260,146)"
         x1="70"
         x2="45"
         y1="34"
         style="fill:none;stroke-linecap:butt;stroke-miterlimit:5;stroke-dasharray:8, 5"
         y2="59"
         id="line171" />
      <line
         transform="translate(-260,146)"
         x1="45"
         x2="20"
         y1="59"
         style="fill:none;stroke-linecap:butt;stroke-miterlimit:5;stroke-dasharray:8, 5"
         y2="84"
         id="line173" />
      <line
         transform="translate(-260,146)"
         x1="169"
         x2="157"
         y1="34"
         style="fill:none"
         y2="40"
         id="line175" />
      <line
         transform="translate(-260,146)"
         x1="169"
         x2="157"
         y1="34"
         style="fill:none"
         y2="28"
         id="line177" />
      <polygon
         style="fill:#ffffff;stroke:none"
         transform="translate(-260,146)"
         points="169,34 157,40 157,28 169,34 "
         id="polygon179" />
      <polygon
         style="fill:none"
         points="169,34 157,40 157,28 169,34 "
         transform="translate(-260,146)"
         id="polygon181" />
      <line
         transform="translate(-260,146)"
         x1="20"
         x2="24"
         y1="83"
         style="fill:none"
         y2="70"
         id="line183" />
      <line
         transform="translate(-260,146)"
         x1="20"
         x2="33"
         y1="83"
         style="fill:none"
         y2="79"
         id="line185" />
      <polygon
         style="fill:#ffffff;stroke:none"
         transform="translate(-260,146)"
         points="20,83 24,70 33,79 20,83 "
         id="polygon187" />
      <polygon
         style="fill:none"
         points="20,83 24,70 33,79 20,83 "
         transform="translate(-260,146)"
         id="polygon189" />
      <text
         x="34"
         xml:space="preserve"
         y="31"
         style="stroke:none"
         transform="translate(-260,146)"
         id="text191">60h — 63h</text>
      <line
         transform="translate(-276,110)"
         x1="186"
         x2="76"
         y1="20"
         style="fill:none;stroke-linecap:butt;stroke-miterlimit:5;stroke-dasharray:8, 5"
         y2="20"
         id="line193" />
      <line
         transform="translate(-276,110)"
         x1="76"
         x2="56"
         y1="20"
         style="fill:none;stroke-linecap:butt;stroke-miterlimit:5;stroke-dasharray:8, 5"
         y2="40"
         id="line195" />
      <line
         transform="translate(-276,110)"
         x1="56"
         x2="36"
         y1="40"
         style="fill:none;stroke-linecap:butt;stroke-miterlimit:5;stroke-dasharray:8, 5"
         y2="60"
         id="line197" />
      <line
         transform="translate(-276,110)"
         x1="36"
         x2="36"
         y1="60"
         style="fill:none;stroke-linecap:butt;stroke-miterlimit:5;stroke-dasharray:8, 5"
         y2="120"
         id="line199" />
      <line
         transform="translate(-276,110)"
         x1="185"
         x2="173"
         y1="20"
         style="fill:none"
         y2="26"
         id="line201" />
      <line
         transform="translate(-276,110)"
         x1="185"
         x2="173"
         y1="20"
         style="fill:none"
         y2="14"
         id="line203" />
      <polygon
         style="fill:#ffffff;stroke:none"
         transform="translate(-276,110)"
         points="185,20 173,26 173,14 185,20 "
         id="polygon205" />
      <polygon
         style="fill:none"
         points="185,20 173,26 173,14 185,20 "
         transform="translate(-276,110)"
         id="polygon207" />
      <line
         transform="translate(-276,110)"
         x1="36"
         x2="30"
         y1="119"
         style="fill:none"
         y2="107"
         id="line209" />
      <line
         transform="translate(-276,110)"
         x1="36"
         x2="42"
         y1="119"
         style="fill:none"
         y2="107"
         id="line211" />
      <polygon
         style="fill:#ffffff;stroke:none"
         transform="translate(-276,110)"
         points="36,119 30,107 42,107 36,119 "
         id="polygon213" />
      <polygon
         style="fill:none"
         points="36,119 30,107 42,107 36,119 "
         transform="translate(-276,110)"
         id="polygon215" />
      <text
         x="20"
         xml:space="preserve"
         y="37"
         style="stroke:none"
         transform="translate(-276,110)"
         id="text217">50h — 51h</text>
      <ellipse
         transform="translate(-90,310)"
         style="opacity:0;fill:#ffffff;stroke:none"
         rx="59"
         cx="59"
         ry="19"
         cy="19"
         id="ellipse219"
         sodipodi:cx="59"
         sodipodi:cy="19"
         sodipodi:rx="59"
         sodipodi:ry="19" />
      <ellipse
         transform="translate(-90,310)"
         style="fill:none"
         rx="59"
         cx="59"
         ry="19"
         cy="19"
         id="ellipse221"
         sodipodi:cx="59"
         sodipodi:cy="19"
         sodipodi:rx="59"
         sodipodi:ry="19" />
      <text
         x="19"
         xml:space="preserve"
         y="26"
         style="stroke:none"
         transform="translate(-90,310)"
         id="text223">Servo Driver</text>
      <ellipse
         transform="translate(-90,260)"
         style="opacity:0;fill:#ffffff;stroke:none"
         rx="59"
         cx="59"
         ry="19"
         cy="19"
         id="ellipse225"
         sodipodi:cx="59"
         sodipodi:cy="19"
         sodipodi:rx="59"
         sodipodi:ry="19" />
      <ellipse
         transform="translate(-90,260)"
         style="fill:none"
         rx="59"
         cx="59"
         ry="19"
         cy="19"
         id="ellipse227"
         sodipodi:cx="59"
         sodipodi:cy="19"
         sodipodi:rx="59"
         sodipodi:ry="19" />
      <text
         x="13"
         xml:space="preserve"
         y="17"
         style="stroke:none"
         transform="translate(-90,260)"
         id="text229">Aanalog Input </text>
      <text
         x="41"
         xml:space="preserve"
         y="34"
         style="stroke:none"
         transform="translate(-90,260)"
         id="text231">Driver</text>
      <ellipse
         transform="translate(-90,210)"
         style="opacity:0;fill:#ffffff;stroke:none"
         rx="59"
         cx="59"
         ry="19"
         cy="19"
         id="ellipse233"
         sodipodi:cx="59"
         sodipodi:cy="19"
         sodipodi:rx="59"
         sodipodi:ry="19" />
      <ellipse
         transform="translate(-90,210)"
         style="fill:none"
         rx="59"
         cx="59"
         ry="19"
         cy="19"
         id="ellipse235"
         sodipodi:cx="59"
         sodipodi:cy="19"
         sodipodi:rx="59"
         sodipodi:ry="19" />
      <text
         x="22"
         xml:space="preserve"
         y="26"
         style="stroke:none"
         transform="translate(-90,210)"
         id="text237">GPIO Driver</text>
      <ellipse
         transform="translate(-90,160)"
         style="opacity:0;fill:#ffffff;stroke:none"
         rx="59"
         cx="59"
         ry="19"
         cy="19"
         id="ellipse239"
         sodipodi:cx="59"
         sodipodi:cy="19"
         sodipodi:rx="59"
         sodipodi:ry="19" />
      <ellipse
         transform="translate(-90,160)"
         style="fill:none"
         rx="59"
         cx="59"
         ry="19"
         cy="19"
         id="ellipse241"
         sodipodi:cx="59"
         sodipodi:cy="19"
         sodipodi:rx="59"
         sodipodi:ry="19" />
      <text
         x="19"
         xml:space="preserve"
         y="26"
         style="stroke:none"
         transform="translate(-90,160)"
         id="text243">Motor Driver</text>
      <line
         transform="translate(-260,36)"
         x1="380"
         x2="200"
         y1="34"
         style="fill:none"
         y2="34"
         id="line245" />
      <line
         transform="translate(-260,36)"
         x1="200"
         x2="20"
         y1="34"
         style="fill:none"
         y2="34"
         id="line247" />
      <line
         transform="translate(-260,36)"
         x1="379"
         x2="367"
         y1="34"
         style="fill:none"
         y2="40"
         id="line249" />
      <line
         transform="translate(-260,36)"
         x1="379"
         x2="367"
         y1="34"
         style="fill:none"
         y2="28"
         id="line251" />
      <text
         x="159"
         xml:space="preserve"
         y="31"
         style="stroke:none"
         transform="translate(-260,36)"
         id="text253">Real I2C bus</text>
      <ellipse
         transform="translate(-90,110)"
         style="opacity:0;fill:#ffffff;stroke:none"
         rx="59"
         cx="59"
         ry="19"
         cy="19"
         id="ellipse255"
         sodipodi:cx="59"
         sodipodi:cy="19"
         sodipodi:rx="59"
         sodipodi:ry="19" />
      <ellipse
         transform="translate(-90,110)"
         style="fill:none"
         rx="59"
         cx="59"
         ry="19"
         cy="19"
         id="ellipse257"
         sodipodi:cx="59"
         sodipodi:cy="19"
         sodipodi:rx="59"
         sodipodi:ry="19" />
      <text
         x="28"
         xml:space="preserve"
         y="26"
         style="stroke:none"
         transform="translate(-90,110)"
         id="text259">SPI Driver</text>
      <line
         transform="translate(-358,70)"
         x1="58"
         x2="58"
         y1="140"
         style="fill:none;stroke-linecap:butt;stroke-miterlimit:5;stroke-dasharray:8, 5"
         y2="80"
         id="line261" />
      <line
         transform="translate(-358,70)"
         x1="58"
         x2="58"
         y1="80"
         style="fill:none;stroke-linecap:butt;stroke-miterlimit:5;stroke-dasharray:8, 5"
         y2="20"
         id="line263" />
      <line
         transform="translate(-358,70)"
         x1="58"
         x2="52"
         y1="139"
         style="fill:none"
         y2="127"
         id="line265" />
      <line
         transform="translate(-358,70)"
         x1="58"
         x2="64"
         y1="139"
         style="fill:none"
         y2="127"
         id="line267" />
      <polygon
         style="fill:#ffffff;stroke:none"
         transform="translate(-358,70)"
         points="58,139 52,127 64,127 58,139 "
         id="polygon269" />
      <polygon
         style="fill:none"
         points="58,139 52,127 64,127 58,139 "
         transform="translate(-358,70)"
         id="polygon271" />
      <line
         transform="translate(-358,70)"
         x1="58"
         x2="64"
         y1="20"
         style="fill:none"
         y2="32"
         id="line273" />
      <line
         transform="translate(-358,70)"
         x1="58"
         x2="52"
         y1="20"
         style="fill:none"
         y2="32"
         id="line275" />
      <polygon
         style="fill:#ffffff;stroke:none"
         transform="translate(-358,70)"
         points="58,20 64,32 52,32 58,20 "
         id="polygon277" />
      <polygon
         style="fill:none"
         points="58,20 64,32 52,32 58,20 "
         transform="translate(-358,70)"
         id="polygon279" />
      <text
         x="20"
         xml:space="preserve"
         y="77"
         style="stroke:none"
         transform="translate(-358,70)"
         id="text281">Local virtual</text>
      <text
         x="34"
         xml:space="preserve"
         y="94"
         style="stroke:none"
         transform="translate(-358,70)"
         id="text283">I2C bus</text>
      <ellipse
         transform="translate(-360,210)"
         style="opacity:0;fill:#ffffff;stroke:none"
         rx="59"
         cx="59"
         ry="19"
         cy="19"
         id="ellipse285"
         sodipodi:cx="59"
         sodipodi:cy="19"
         sodipodi:rx="59"
         sodipodi:ry="19" />
      <ellipse
         transform="translate(-360,210)"
         style="fill:none"
         rx="59"
         cx="59"
         ry="19"
         cy="19"
         id="ellipse287"
         sodipodi:cx="59"
         sodipodi:cy="19"
         sodipodi:rx="59"
         sodipodi:ry="19" />
      <text
         x="13"
         xml:space="preserve"
         y="17"
         style="stroke:none"
         transform="translate(-360,210)"
         id="text289">Slave local I2C</text>
      <text
         x="26"
         xml:space="preserve"
         y="34"
         style="stroke:none"
         transform="translate(-360,210)"
         id="text291">processor</text>
      <line
         transform="translate(-430,-54)"
         x1="70"
         x2="20"
         y1="124"
         style="fill:none"
         y2="124"
         id="line293" />
      <line
         transform="translate(-430,-54)"
         x1="20"
         x2="20"
         y1="124"
         style="fill:none"
         y2="34"
         id="line295" />
      <line
         transform="translate(-430,-54)"
         x1="20"
         x2="365"
         y1="34"
         style="fill:none"
         y2="34"
         id="line297" />
      <line
         transform="translate(-430,-54)"
         x1="365"
         x2="710"
         y1="34"
         style="fill:none"
         y2="34"
         id="line299" />
      <line
         transform="translate(-430,-54)"
         x1="710"
         x2="710"
         y1="34"
         style="fill:none"
         y2="124"
         id="line301" />
      <line
         transform="translate(-430,-54)"
         x1="710"
         x2="670"
         y1="124"
         style="fill:none"
         y2="124"
         id="line303" />
      <line
         transform="translate(-430,-54)"
         x1="69"
         x2="57"
         y1="124"
         style="fill:none"
         y2="130"
         id="line305" />
      <line
         transform="translate(-430,-54)"
         x1="69"
         x2="57"
         y1="124"
         style="fill:none"
         y2="118"
         id="line307" />
      <text
         x="17"
         xml:space="preserve"
         y="139"
         style="stroke:none"
         transform="translate(-430,-54)"
         id="text309">PC Tx</text>
      <line
         transform="translate(-430,-54)"
         x1="670"
         x2="682"
         y1="124"
         style="fill:none"
         y2="118"
         id="line311" />
      <line
         transform="translate(-430,-54)"
         x1="670"
         x2="682"
         y1="124"
         style="fill:none"
         y2="130"
         id="line313" />
      <text
         x="683"
         xml:space="preserve"
         y="139"
         style="stroke:none"
         transform="translate(-430,-54)"
         id="text315">PC Rx</text>
      <text
         x="347"
         xml:space="preserve"
         y="31"
         style="stroke:none"
         transform="translate(-430,-54)"
         id="text317">UART</text>
      <ellipse
         transform="translate(-360,50)"
         style="opacity:0;fill:#ffffff;stroke:none"
         rx="59"
         cx="59"
         ry="19"
         cy="19"
         id="ellipse319"
         sodipodi:cx="59"
         sodipodi:cy="19"
         sodipodi:rx="59"
         sodipodi:ry="19" />
      <ellipse
         transform="translate(-360,50)"
         style="fill:none"
         rx="59"
         cx="59"
         ry="19"
         cy="19"
         id="ellipse321"
         sodipodi:cx="59"
         sodipodi:cy="19"
         sodipodi:rx="59"
         sodipodi:ry="19" />
      <text
         x="16"
         xml:space="preserve"
         y="17"
         style="stroke:none"
         transform="translate(-360,50)"
         id="text323">USART to I2C</text>
      <text
         x="28"
         xml:space="preserve"
         y="34"
         style="stroke:none"
         transform="translate(-360,50)"
         id="text325">translator</text>
    </g>
  </g>
</svg>
